<?xml version="1.0" encoding="UTF-8" standalone="no"?>
<!DOCTYPE svg PUBLIC "-//W3C//DTD SVG 1.1//EN" "http://www.w3.org/Graphics/SVG/1.1/DTD/svg11.dtd">
<svg width="100%" height="100%" viewBox="0 0 669 163" version="1.1" xmlns="http://www.w3.org/2000/svg" xmlns:xlink="http://www.w3.org/1999/xlink" xml:space="preserve" xmlns:serif="http://www.serif.com/" style="fill-rule:evenodd;clip-rule:evenodd;stroke-linejoin:round;stroke-miterlimit:2;">
    <g transform="matrix(0.774378,0,0,1,-204.497,-316.078)">
        <g transform="matrix(300,0,0,300,247.279,474.778)">
            <path d="M0.266,-0.527C0.295,-0.527 0.325,-0.525 0.354,-0.52C0.383,-0.515 0.41,-0.504 0.434,-0.488C0.457,-0.472 0.476,-0.449 0.492,-0.419C0.507,-0.389 0.514,-0.349 0.514,-0.3L0.514,-0.001C0.497,0.002 0.481,0.005 0.467,0.006C0.453,0.007 0.441,0.007 0.43,0.007C0.419,0.007 0.406,0.007 0.392,0.006C0.378,0.005 0.362,0.002 0.345,-0.001L0.345,-0.282C0.345,-0.317 0.338,-0.343 0.325,-0.358C0.312,-0.373 0.291,-0.381 0.264,-0.381C0.257,-0.381 0.249,-0.38 0.241,-0.379C0.232,-0.378 0.227,-0.376 0.225,-0.375L0.225,-0.001C0.208,0.002 0.192,0.005 0.178,0.006C0.164,0.007 0.152,0.007 0.141,0.007C0.13,0.007 0.117,0.007 0.103,0.006C0.089,0.005 0.073,0.002 0.056,-0.001L0.056,-0.492C0.079,-0.5 0.108,-0.508 0.141,-0.516C0.174,-0.523 0.216,-0.527 0.266,-0.527Z" style="fill:rgb(64,64,64);fill-rule:nonzero;"/>
        </g>
        <g transform="matrix(300,0,0,300,416.779,474.778)">
            <path d="M0.297,0.012C0.249,0.012 0.208,0.005 0.175,-0.01C0.141,-0.024 0.113,-0.043 0.092,-0.068C0.071,-0.093 0.055,-0.122 0.046,-0.155C0.036,-0.188 0.031,-0.224 0.031,-0.262C0.031,-0.299 0.037,-0.333 0.049,-0.366C0.06,-0.399 0.078,-0.427 0.101,-0.451C0.124,-0.475 0.152,-0.494 0.186,-0.508C0.22,-0.522 0.259,-0.529 0.304,-0.529C0.327,-0.529 0.353,-0.526 0.381,-0.521C0.409,-0.516 0.44,-0.506 0.473,-0.493C0.472,-0.482 0.471,-0.471 0.469,-0.461C0.467,-0.451 0.464,-0.441 0.462,-0.431C0.459,-0.42 0.455,-0.409 0.451,-0.398C0.446,-0.386 0.441,-0.373 0.435,-0.358C0.412,-0.367 0.391,-0.374 0.372,-0.379C0.353,-0.383 0.336,-0.385 0.322,-0.385C0.3,-0.385 0.281,-0.382 0.266,-0.375C0.251,-0.368 0.238,-0.359 0.229,-0.348C0.22,-0.337 0.213,-0.324 0.209,-0.309C0.204,-0.294 0.202,-0.278 0.202,-0.262C0.202,-0.217 0.212,-0.185 0.231,-0.164C0.25,-0.142 0.279,-0.132 0.316,-0.132L0.334,-0.132L0.334,-0.279C0.351,-0.282 0.366,-0.285 0.379,-0.286C0.392,-0.287 0.404,-0.288 0.416,-0.288C0.439,-0.288 0.467,-0.285 0.499,-0.279L0.499,-0.025C0.48,-0.018 0.453,-0.01 0.418,-0.001C0.383,0.008 0.343,0.012 0.297,0.012Z" style="fill:rgb(64,64,64);fill-rule:nonzero;"/>
        </g>
        <g transform="matrix(300,0,0,300,577.579,474.778)">
            <path d="M0.221,-0.25C0.224,-0.249 0.229,-0.249 0.234,-0.249C0.239,-0.248 0.243,-0.248 0.246,-0.248C0.269,-0.248 0.289,-0.254 0.304,-0.266C0.319,-0.277 0.326,-0.297 0.326,-0.325C0.326,-0.349 0.319,-0.368 0.304,-0.381C0.289,-0.394 0.27,-0.4 0.248,-0.4L0.237,-0.4C0.232,-0.4 0.226,-0.4 0.221,-0.399L0.221,-0.25ZM0.056,-0.515C0.087,-0.52 0.118,-0.523 0.151,-0.526C0.183,-0.528 0.214,-0.529 0.244,-0.529C0.275,-0.529 0.305,-0.526 0.334,-0.521C0.363,-0.515 0.39,-0.505 0.413,-0.49C0.436,-0.474 0.455,-0.454 0.47,-0.428C0.484,-0.401 0.491,-0.367 0.491,-0.325C0.491,-0.287 0.485,-0.255 0.472,-0.229C0.459,-0.203 0.441,-0.182 0.42,-0.166C0.399,-0.15 0.375,-0.139 0.348,-0.132C0.321,-0.125 0.293,-0.121 0.265,-0.121C0.254,-0.121 0.244,-0.121 0.236,-0.122C0.228,-0.123 0.223,-0.123 0.221,-0.124L0.221,-0.001C0.204,0.002 0.188,0.005 0.175,0.006C0.161,0.007 0.149,0.007 0.138,0.007C0.127,0.007 0.115,0.007 0.102,0.006C0.089,0.005 0.073,0.002 0.056,-0.001L0.056,-0.515Z" style="fill:rgb(64,64,64);fill-rule:nonzero;"/>
        </g>
        <g transform="matrix(300,0,0,300,732.379,474.778)">
            <path d="M0.03,-0.169C0.03,-0.202 0.037,-0.229 0.051,-0.25C0.065,-0.271 0.083,-0.288 0.105,-0.301C0.127,-0.314 0.151,-0.323 0.178,-0.328C0.205,-0.333 0.231,-0.335 0.256,-0.335L0.317,-0.335C0.316,-0.347 0.313,-0.357 0.307,-0.365C0.301,-0.373 0.293,-0.379 0.284,-0.384C0.275,-0.388 0.264,-0.391 0.253,-0.393C0.242,-0.394 0.23,-0.395 0.218,-0.395C0.202,-0.395 0.183,-0.393 0.162,-0.39C0.141,-0.386 0.119,-0.38 0.096,-0.372C0.09,-0.383 0.085,-0.394 0.081,-0.403C0.076,-0.412 0.073,-0.422 0.071,-0.432C0.068,-0.441 0.067,-0.451 0.066,-0.462C0.065,-0.472 0.064,-0.484 0.064,-0.497C0.096,-0.508 0.128,-0.516 0.16,-0.521C0.191,-0.526 0.22,-0.529 0.245,-0.529C0.28,-0.529 0.311,-0.525 0.339,-0.517C0.367,-0.508 0.391,-0.495 0.411,-0.478C0.43,-0.461 0.445,-0.439 0.456,-0.412C0.467,-0.385 0.472,-0.352 0.472,-0.315L0.472,-0.022C0.447,-0.015 0.416,-0.007 0.38,-0C0.344,0.007 0.306,0.011 0.266,0.011C0.231,0.011 0.2,0.008 0.171,0.002C0.141,-0.005 0.117,-0.015 0.096,-0.029C0.075,-0.043 0.059,-0.062 0.048,-0.085C0.036,-0.108 0.03,-0.136 0.03,-0.169ZM0.266,-0.113C0.272,-0.113 0.281,-0.114 0.292,-0.115C0.303,-0.116 0.312,-0.118 0.317,-0.119L0.317,-0.229L0.26,-0.229C0.237,-0.229 0.217,-0.224 0.201,-0.214C0.185,-0.204 0.177,-0.19 0.177,-0.172C0.177,-0.159 0.18,-0.148 0.186,-0.141C0.192,-0.133 0.2,-0.127 0.209,-0.123C0.218,-0.119 0.227,-0.116 0.238,-0.115C0.248,-0.114 0.257,-0.113 0.266,-0.113Z" style="fill:rgb(64,64,64);fill-rule:nonzero;"/>
        </g>
        <g transform="matrix(300,0,0,300,889.279,474.778)">
            <path d="M0.233,-0.529C0.287,-0.529 0.333,-0.523 0.372,-0.51C0.41,-0.497 0.441,-0.48 0.466,-0.457C0.491,-0.434 0.509,-0.406 0.52,-0.373C0.531,-0.34 0.537,-0.304 0.537,-0.264C0.537,-0.222 0.531,-0.184 0.52,-0.15C0.508,-0.116 0.49,-0.087 0.465,-0.063C0.44,-0.039 0.407,-0.021 0.368,-0.008C0.328,0.006 0.28,0.012 0.224,0.012C0.191,0.012 0.162,0.011 0.137,0.009C0.111,0.006 0.084,0.003 0.056,-0.001L0.056,-0.515C0.084,-0.518 0.114,-0.522 0.145,-0.525C0.176,-0.528 0.206,-0.529 0.233,-0.529ZM0.225,-0.131C0.228,-0.131 0.231,-0.131 0.236,-0.13C0.24,-0.129 0.246,-0.129 0.255,-0.129C0.292,-0.129 0.32,-0.139 0.339,-0.161C0.357,-0.182 0.366,-0.216 0.366,-0.264C0.366,-0.307 0.357,-0.338 0.339,-0.358C0.321,-0.377 0.295,-0.387 0.262,-0.387C0.254,-0.387 0.247,-0.387 0.24,-0.386C0.233,-0.385 0.228,-0.385 0.225,-0.384L0.225,-0.131Z" style="fill:rgb(64,64,64);fill-rule:nonzero;"/>
        </g>
        <g transform="matrix(300,0,0,300,1059.68,474.778)">
            <path d="M0.225,-0.001C0.208,0.002 0.192,0.004 0.178,0.005C0.164,0.006 0.151,0.007 0.14,0.007C0.129,0.007 0.116,0.006 0.102,0.005C0.088,0.004 0.073,0.002 0.056,-0.001L0.056,-0.517C0.071,-0.52 0.085,-0.523 0.1,-0.524C0.114,-0.525 0.128,-0.526 0.141,-0.526C0.154,-0.526 0.167,-0.525 0.182,-0.524C0.197,-0.523 0.211,-0.52 0.225,-0.517L0.225,-0.001Z" style="fill:rgb(64,64,64);fill-rule:nonzero;"/>
        </g>
    </g>
</svg>
